PathFileType	4	(X/Y/Z)	/Users/mathieubourgeois/Desktop/Analyse/Traitement/Sujet_08/Transformed_Static_Sujet_08_Tpose.trc
DataRate	CameraRate	NumFrames	NumMarkers	Units	OrigDataRate	OrigDataStartFrame	OrigNumFrames
120.000000	120.000000	4	35	mm	120.000000	121	324
Frame#	Time	RFHD			RANE			STRN			LANI			LKNE			T10			RHUM			RWRB			C7			LFWT			LTOE			LWRA			LBWT			RBWT			RFWT			LKNI			RKNI			RKNE			LANE			RANI			LHEE			RTOE			LHUM			LRAD			RRAD			RWRA			LWRB			LFHD			LBHD			RBHD			RSHO			LSHO			CLAV			LCAR			RCAR			
		X1	Y1	Z1	X2	Y2	Z2	X3	Y3	Z3	X4	Y4	Z4	X5	Y5	Z5	X6	Y6	Z6	X7	Y7	Z7	X8	Y8	Z8	X9	Y9	Z9	X10	Y10	Z10	X11	Y11	Z11	X12	Y12	Z12	X13	Y13	Z13	X14	Y14	Z14	X15	Y15	Z15	X16	Y16	Z16	X17	Y17	Z17	X18	Y18	Z18	X19	Y19	Z19	X20	Y20	Z20	X21	Y21	Z21	X22	Y22	Z22	X23	Y23	Z23	X24	Y24	Z24	X25	Y25	Z25	X26	Y26	Z26	X27	Y27	Z27	X28	Y28	Z28	X29	Y29	Z29	X30	Y30	Z30	X31	Y31	Z31	X32	Y32	Z32	X33	Y33	Z33	X34	Y34	Z34	X35	Y35	Z35	

122	1.008333333333333	-834.0265502929688	1626.075439453125	311.6831054687498	-843.673583984375	83.03221893310548	205.1118927001952	-695.2839965820312	1255.80029296875	413.2309570312499	-591.4251098632812	92.02467346191408	232.8829498291015	-527.0779418945312	498.5634155273438	299.4696960449218	-681.44970703125	1214.502685546875	183.6805114746092	-1093.156616210938	1384.807495117188	264.504913330078	-1341.70751953125	1471.961181640625	256.0910034179685	-681.6193237304688	1472.516723632812	229.2872467041014	-557.7009887695312	968.5104370117188	371.6119384765624	-527.6766357421875	34.56551361083987	399.6705017089843	-22.29887580871585	1417.098022460938	222.6560058593749	-620.4599609375	1006.947021484375	221.6934814453124	-753.46923828125	1007.144592285156	222.0438995361327	-794.618896484375	970.3849487304688	380.7014770507811	-629.4886474609375	439.0563659667969	258.2380676269531	-747.3444213867188	433.7608947753906	262.2407836914061	-851.2572021484375	506.7438049316406	268.3031311035155	-514.19580078125	80.7111282348633	191.233901977539	-764.746826171875	101.699203491211	229.9836273193359	-561.7571411132812	52.86698150634766	155.0491333007812	-813.7435302734375	37.78669738769533	394.7603454589843	-283.0470581054688	1386.8583984375	274.9700622558593	-275.3902893066406	1430.619995117188	210.4044494628905	-1100.344360351562	1421.9892578125	210.7032012939451	-1348.571899414062	1417.793823242188	215.1692657470701	-32.85430526733401	1488.107788085938	248.2288970947265	-768.126708984375	1636.414428710938	420.9676208496091	-629.2064819335938	1632.019775390625	351.6232604980467	-687.9537963867188	1634.69775390625	228.2907409667967	-797.3330078125	1475.347412109375	250.9976196289061	-577.157958984375	1474.085205078125	247.6565856933592	-701.7764892578125	1417.260498046875	352.7951354980466	67.81168365478513	1469.042358398438	216.9533233642577	-1449.474365234375	1447.068115234375	217.5367584228513	
123	1.016666666666667	-834.0996704101562	1626.050537109375	311.7070312499998	-843.66552734375	83.02112579345705	205.1151580810546	-695.2835083007812	1255.852294921875	413.1734313964843	-591.4402465820312	92.00620269775392	232.8728637695312	-527.086181640625	498.5667724609375	299.465362548828	-681.4932861328125	1214.447875976562	183.6057128906248	-1093.24658203125	1384.919189453125	264.5868530273436	-1341.76171875	1472.165283203125	256.2114562988278	-681.7597045898438	1472.468139648438	229.1127624511717	-557.6920776367188	968.5064697265625	371.5975341796874	-527.6727905273438	34.56876754760744	399.6687011718749	-22.56940460205081	1417.208374023438	223.2768096923827	-620.5036010742188	1006.919006347656	221.6937866210936	-753.5064086914062	1007.131591796875	222.0638580322264	-794.5941772460938	970.3883056640625	380.7289123535155	-629.49951171875	439.0477600097656	258.2571716308593	-747.348388671875	433.7542724609375	262.2570800781249	-851.2686767578125	506.7438049316406	268.3178100585936	-514.2005004882812	80.71493530273439	191.2259368896484	-764.7410888671875	101.7001953125	229.9714202880859	-561.762939453125	52.86658477783204	155.0597686767578	-813.7498168945312	37.76898574829104	394.7604064941405	-283.1256408691407	1386.923950195312	274.7557678222655	-275.4923095703125	1430.683227539062	210.1717834472655	-1100.429077148438	1422.035400390625	210.7336578369138	-1348.666748046875	1417.945922851562	215.326232910156	-32.95045471191409	1488.198120117188	247.9742431640624	-767.9829711914062	1636.400024414062	420.8960876464841	-629.18994140625	1632.045288085938	351.2836303710936	-688.1481323242188	1634.677124023438	228.0534362792967	-797.4369506835938	1475.30078125	250.8791503906248	-577.2359008789062	1474.08837890625	247.4822845458983	-701.8168334960938	1417.273315429688	352.6827087402341	67.69539642333982	1469.17919921875	216.6446380615234	-1449.782592773438	1446.957763671875	218.380187988281	
124	1.025	-834.1874389648438	1626.050659179688	311.7569885253904	-843.6615600585938	83.01561737060548	205.1121978759764	-695.2752685546875	1255.898315429688	413.1206665039061	-591.446044921875	92.01536560058595	232.875762939453	-527.0951538085938	498.5574035644531	299.4603576660155	-681.5350952148438	1214.393310546875	183.5268707275389	-1093.33203125	1385.019409179688	264.6454772949217	-1341.825927734375	1472.366821289062	256.3149108886716	-681.8854370117188	1472.406982421875	228.9833679199217	-557.6749877929688	968.519775390625	371.5895690917968	-527.673095703125	34.5689277648926	399.6733398437499	-22.66153144836429	1417.271484375	223.0115661621093	-620.532470703125	1006.920349121094	221.6868743896483	-753.5275268554688	1007.126953125	222.1018829345702	-794.5746459960938	970.395263671875	380.7515563964842	-629.4928588867188	439.0499267578125	258.2354736328124	-747.35595703125	433.7538757324219	262.2586975097655	-851.2620849609375	506.7242736816406	268.3421936035155	-514.1983642578125	80.70824432373048	191.2263488769531	-764.7373657226562	101.707633972168	229.9562988281249	-561.7603149414062	52.85956192016602	155.0404357910156	-813.7494506835938	37.76890182495119	394.7608642578124	-283.1831665039063	1386.96728515625	274.4995727539061	-275.5985717773438	1430.728271484375	209.8971405029296	-1100.532592773438	1422.147583007812	210.8073272705076	-1348.737426757812	1418.128540039062	215.4710998535154	-33.04724884033206	1488.266357421875	247.6717681884765	-767.85595703125	1636.423095703125	420.8361511230466	-629.17041015625	1632.066162109375	350.9204711914061	-688.3767700195312	1634.67041015625	227.8386383056639	-797.5007934570312	1475.246826171875	250.7053985595701	-577.347412109375	1474.094116210938	247.3114929199217	-701.8629760742188	1417.296875	352.5596008300779	67.59330749511716	1469.264404296875	216.3259735107421	-1449.879638671875	1447.173828125	218.5523223876951	
125	1.033333333333333	-834.2603149414062	1626.044311523438	311.8530578613279	-843.662841796875	83.02174377441408	205.1206054687499	-695.27978515625	1255.953979492188	413.0789184570311	-591.4475708007812	92.00206756591798	232.870147705078	-527.0958862304688	498.5510559082031	299.4474792480468	-681.5836181640625	1214.3427734375	183.4698944091795	-1093.425048828125	1385.135375976562	264.7182006835936	-1341.89208984375	1472.592651367188	256.4247131347653	-682.0325317382812	1472.335205078125	228.8441772460936	-557.6622314453125	968.5183715820312	371.5576782226561	-527.67578125	34.56529617309572	399.6754760742187	-22.73120117187503	1417.35888671875	222.6142578124999	-620.5780639648438	1006.893005371094	221.6763916015624	-753.5682373046875	1007.108520507812	222.127227783203	-794.5570678710938	970.4260864257812	380.7857666015623	-629.496826171875	439.0448303222656	258.2339782714843	-747.3555908203125	433.7565307617188	262.2557067871093	-851.26708984375	506.7399291992188	268.3370971679686	-514.1961059570312	80.70137023925783	191.2269287109374	-764.7274169921875	101.7065658569336	229.9686279296874	-561.7482299804688	52.85837936401368	155.0401153564453	-813.7421264648438	37.77287292480471	394.7580261230468	-283.2419128417969	1386.996826171875	274.2336120605468	-275.7172241210938	1430.736938476562	209.6613616943358	-1100.638916015625	1422.225830078125	210.8605346679685	-1348.843383789062	1418.353515625	215.6318817138669	-33.13579940795901	1488.335083007812	247.3691406249999	-767.6988525390625	1636.454956054688	420.7851257324216	-629.1263427734375	1632.089111328125	350.5657958984373	-688.6035766601562	1634.663818359375	227.6257629394529	-797.5780029296875	1475.210205078125	250.5855102539061	-577.441650390625	1474.113159179688	247.1370544433592	-701.9129028320312	1417.313842773438	352.4306640624998	67.49872589111325	1469.3515625	216.0103607177734	-1449.945556640625	1447.4296875	218.7043151855466	
